<?xml version="1.0" encoding="UTF-8"?>
<svg xmlns="http://www.w3.org/2000/svg" version="1.1" viewBox="0 0 212 40" width="212" height="40">
  <path fill="#FFF" d="M 20,0 c -11,0 -20,9 -20,20 v 0.8 c 0.2,0 0.4,0.2 0.5,0.5 0.1,0.2 0.5,1 0.7,1.1 0.1,0.1 0.1,0.2 0.2,0.2 0.3,0.1 2.2,-0.1 2.3,-0.2 0.1,-0.1 0.9,-0.3 1.1,-0.3 h 0.2 c 0.3,-0.2 0.4,-0.2 0.7,-0.3 1,-0.3 1.3,-0.4 1.7,-0.6 0.3,-0.1 0.5,-0.2 0.5,-0.2 0.1,0 0.6,-0.2 1,-0.4 0.1,-0.1 0.2,-0.2 0.3,-0.2 0.1,0 0.3,0 0.4,-0.1 0.4,-0.2 0.9,-0.3 1.3,-0.3 0.5,0 0.7,0 1.1,-0.3 0.9,-0.7 0.9,-0.8 1.8,-0.9 0.2,0 0.4,-0.1 0.5,-0.1 h 0.3 c 0.1,0 0.3,0 0.3,-0.1 0.1,-0.2 0.1,-0.2 0,-0.4 -0.1,-0.2 -0.2,-0.3 -0.3,-0.3 -0.5,-0.2 -1.3,-1 -1.6,-1.5 -0.1,-0.1 -0.2,-0.3 -0.3,-0.4 -0.1,-0.1 -0.3,-0.4 -0.3,-0.4 -0.1,-0.1 -0.1,-0.1 -0.4,-0.1 -0.6,0 -1.7,-0.3 -2,-0.5 -0.2,-0.1 -0.3,-0.5 -0.3,-0.7 0,-0.2 0.3,-0.4 0.8,-0.8 0.2,-0.2 0.4,-0.4 0.4,-0.5 0,0 0.1,-0.2 0,-0.4 -0.1,-0.6 0.1,-0.8 0.8,-1.3 1,-0.7 1.9,-1.1 2.8,-1.1 0.5,0 0.7,0 1.1,0.3 0.3,0.2 0.2,0.2 0.9,0.2 0.6,0 0.7,0 1,0.1 0.4,0.1 0.7,0.3 0.8,0.5 0.2,0.2 0,0.7 -0.6,1.6 -0.2,0.3 -0.3,0.4 -0.1,0.7 0.2,0.4 0.2,0.8 0,1.2 -0.1,0.2 -0.2,0.4 -0.2,0.4 0,0.1 0.4,0.7 0.6,1.1 0.2,0.4 0.2,0.5 0.4,0.3 0.1,-0.1 0.2,-0.1 0.3,-0.1 0.2,-0.1 0.1,-0.1 0.6,0.4 0.3,0.3 0.5,0.5 0.6,0.5 0.2,0 0.3,-0.2 0.8,-0.5 0.3,-0.1 0.6,-0.3 0.8,-0.4 0.2,-0.1 0.4,-0.1 0.5,-0.2 0.3,-0.1 0.8,-0.1 1.7,-0.2 0.5,-0.1 0.8,-0.1 1.1,-0.2 0.2,-0.1 0.6,-0.2 0.8,-0.3 0.2,-0.1 0.6,-0.3 0.7,-0.3 0.1,0 0.5,0 0.7,-0.1 0.4,-0.1 0.8,-0.2 1,-0.3 0.3,-0.1 0.5,-0.2 0.7,-0.3 0.1,0 0.3,-0.1 0.5,-0.2 0.2,-0.1 0.4,-0.2 0.6,-0.3 0.2,-0.1 0.6,-0.3 1,-0.4 1,-0.3 1.4,-0.5 1.8,-0.8 0.2,-0.1 0.4,-0.2 0.6,-0.3 0.6,-0.2 0.7,-0.3 1.2,-0.8 0.3,-0.3 0.5,-0.6 0.7,-0.8 0.5,-0.5 1.3,-1.3 1.5,-1.3 0.1,0 0.3,0 0.4,0.1 0.1,0.1 0.3,0.1 0.3,0.1 -3.6,-6.1 -10.2,-9.9 -17.3,-9.9 z M 0.5,24.4 c 1.4,6.2 5.7,11.4 11.4,13.9 0,-0.1 0,-1.2 0,-1.9 0,-0.6 0,-0.8 -0.2,-1.2 -0.4,-0.8 -0.4,-1.9 -0.2,-2.5 0,-0.2 0,-0.5 0.1,-1 0,-0.4 0.2,-0.9 0.2,-1.2 0.1,-0.3 0.1,-0.7 0.1,-1.2 0.1,-0.8 0.1,-1.1 -0.1,-2.1 -0.1,-0.2 -0.1,-0.5 -0.1,-0.8 0,-0.4 -0.1,-0.4 -0.2,-0.6 -0.1,-0.2 -0.1,-0.3 -0.2,-0.3 -0.6,-0.1 -1.6,-0.1 -1.9,0.1 -0.1,0.1 -0.4,0.1 -0.7,0.1 -0.3,0 -0.5,0 -0.5,0.1 -0.1,0.2 -0.4,0.4 -0.6,0.3 -0.2,-0.1 -0.3,-0.3 -0.5,-0.7 -0.1,-0.3 -0.2,-0.6 -0.4,-0.9 -0.1,-0.1 -0.1,-0.3 -0.1,-0.3 0,0 0,-0.1 -0.1,-0.2 l -0.1,-0.1 -1.1,0.2 c -0.9,0.1 -1.2,0.2 -2.6,0.2 -1,0 -2,0.1 -2.2,0.1 z M 40,20 c 0,-2.9 -0.7,-5.8 -1.9,-8.5 -0.1,0 -0.1,0.3 -0.2,0.7 -0.1,0.3 -0.3,0.7 -0.4,0.8 -0.1,0 -0.3,0.1 -0.4,0.1 -0.2,0 -0.6,0 -0.9,0.2 0,0.1 -0.1,0 -0.2,0.1 -0.1,0.1 -0.2,0.1 -0.3,0.1 -0.1,0 -0.2,-0.1 -0.2,0 0,0.1 -0.1,0 -0.2,0.1 -0.3,0.1 -1.4,0.6 -1.7,0.9 -0.2,0.2 -0.4,0.4 -0.6,0.5 -0.3,0.2 -1.8,1 -1.8,1 0,0 -0.3,0.2 -0.6,0.3 -0.3,0.1 -0.7,0.3 -0.7,0.3 0,0 -0.2,-0.1 -0.2,0 0,0.1 -0.4,0.2 -0.6,0.3 l -0.4,0.2 0,0.3 c 0.1,0.2 0.1,0.5 0,0.8 -0.1,0.2 -0.1,0.5 -0.1,0.7 0,0.5 -0.2,1 -0.8,1.5 -0.3,0.2 -0.8,0.6 -1,0.8 -0.6,0.4 -1.5,1.3 -1.6,1.5 0,0.2 -0.3,0.7 -0.6,1.6 -0.1,0.3 -0.3,0.6 -0.3,0.7 0,0.1 -0.1,0.3 -0.2,0.6 -0.1,0.3 -0.1,0.6 -0.2,0.7 -0.1,0.1 -0.1,0.5 -0.1,0.6 0,0.1 0,1 -0.1,1.8 l -0.1,1.4 0.1,0.3 c 0.2,0.4 0.4,1.3 0.5,1.8 0.1,0.2 0.1,0.7 0.2,1 0.3,1 0.2,1.5 0.1,2 0,0.2 -0.4,0.5 -1,1 -0.5,0.5 -0.6,0.5 -0.3,2.4 0.1,0.3 0,0.8 0.1,1.1 9.7,-1.6 16.7,-9.9 16.7,-19.7 z M 53.2,33.1 q -1.5,-0.2 -4.1,-4.6 -1.7,-3 -1.7,-8.5 0,-7.8 4.8,-12.6 3.1,-2.8 6.4,-2.8 4.1,0 6.8,3.5 1.8,-0.8 3.5,-0.8 4.4,0 6.2,5.4 0.3,1 0.4,1.9 0.1,1.4 0,3.6 -0.3,3.6 -2.8,7.5 -3.6,4.8 -6.1,5.3 h -0.2 q -0.3,-0.1 -0.3,-0.3 0,-0.4 1.9,-2.6 4.6,-6.1 4.6,-11.8 0,-5.3 -3,-6.9 -0.9,-0.4 -1.4,-0.4 -0.7,0 -1.9,0.5 1.2,3 1.2,5 0,5.7 -3.6,9.2 -2,1.6 -3.8,1.6 -1.9,0 -2.7,-2.1 -0.4,-1 -0.4,-2.2 0,-6.1 6.3,-11.6 -2.2,-2.9 -4.6,-2.9 -4.4,0 -7,5.8 -1.4,4 -1.4,9.2 0,7.4 3.3,11.1 0.2,0.2 0.1,0.4 -0.1,0.2 -0.5,0.1 z M 65,15.6 q 0,-2.9 -1,-4.7 -3.1,3.5 -3.8,7.5 -0.4,1.7 -0.4,2.9 v 0.2 q 0,2 1.4,2 1.9,0 3.3,-4.1 0.5,-2.1 0.5,-3.8 z M 81.8,15.4 q 0.9,0 1.9,7.2 1.1,5.8 1.1,7.1 0,0.2 -0.3,0.2 -1.1,-0.1 -1.5,-1.7 l -0.6,-2.4 q -2.3,0.3 -4.4,0.2 -1.4,4.2 -1.7,4.3 -0.2,0.1 -0.4,0 -1.1,-0.7 -0.9,-2.3 0,-0.6 0.6,-2.9 -0.8,-0.4 -0.8,-1.9 0,-0.2 0.1,-0.2 l 0.1,0.1 q 0.5,0.5 1.3,0.5 2.4,-5.6 4.3,-7.7 0.5,-0.5 1.2,-0.5 z M 78.8,24 l 3.3,-0.1 q -0.9,-5.4 -1.1,-5.4 -0.3,0.2 -2.2,5.5 z M 85.9,15.1 q 0.3,0 0.3,0.2 0,0.1 -0.2,0.4 -0.1,0.2 0,0.5 0.4,1.4 4.7,1.7 2.1,-2.4 5.2,-2.4 2.3,0.2 2.3,1.9 -0.1,2.6 -6.3,2.9 -1.9,6.3 -1.9,11.4 0,1.3 -0.6,1.3 -1.9,0.1 -2,-4.1 0,-4 2,-8.7 -2.9,-0.4 -4.5,-1.4 -1.1,-0.7 -1.1,-1.6 0,-1.7 2.1,-2.1 z M 93.2,17.9 q 2.5,0 3,-1.1 -0.1,-0.3 -0.6,-0.3 -1.2,0 -2.4,1.4 z M 104.4,16.9 q 2.5,-0.1 3.4,0.9 0.3,0.5 0.1,1 -0.7,0.5 -2.9,0.5 h -2.6 q -0.4,0.6 -1,3.7 3.1,-0.3 3.2,-0.3 1.2,0.1 1.2,0.9 -0.5,1.1 -2.2,1.3 -2.2,0.2 -2.6,0.2 l -0.1,1.7 q 0.1,1.3 1.1,1.3 3.9,-0.2 4.9,-0.4 0.4,0 0.4,0.2 0,1.4 -4.8,2.6 -0.9,0.2 -1.4,0.2 -2.7,0 -2.7,-2.7 0,-1 0.4,-3.2 -1.2,-0.3 -1.2,-0.9 0,-0.4 1.6,-0.7 0.5,-2.5 1,-4 h -0.1 q -1.8,-0.2 -1.8,-0.8 0.1,-1.1 6.1,-1.5 z M 113.1,17.7 q 1.6,-1.4 2.5,-1.4 1.2,0 1.3,2.9 0.4,5.3 0.5,6 1.3,-8.1 4.7,-8.1 0.7,0 1,0.5 0.4,0.6 0.4,1.4 0.3,5.7 0.2,8 -0.1,3.1 -0.9,3.1 -1.4,0.1 -1.5,-1.3 -0.1,-4.7 -0.1,-6.4 0,-2.5 0.1,-2.9 -1.2,0.5 -2,4.1 -0.2,0.7 -0.6,2.5 -0.3,1.3 -0.6,2.1 -0.2,0.5 -0.9,0.5 -1.3,0.1 -2,-4.2 -0.5,-3.4 -0.5,-5.5 -1.9,1.3 -2.5,2.3 -1.5,2.4 -1.5,5.9 0,2.7 -0.9,2.7 -0.9,0.1 -1.2,-1 -0.5,-1.5 -0.5,-4.7 0,-1.9 0.5,-4.4 0.3,-1.4 0.5,-1.8 0.4,-0.8 1.2,-0.8 0.9,0 0.4,3.9 1.3,-2.4 2.4,-3.4 z M 132.2,15.4 q 0.9,0 1.9,7.2 1.1,5.8 1.1,7.1 0,0.2 -0.3,0.2 -1.1,-0.1 -1.5,-1.7 l -0.6,-2.4 q -2.3,0.3 -4.4,0.2 -1.4,4.2 -1.7,4.3 -0.2,0.1 -0.4,0 -1.1,-0.7 -0.9,-2.3 0,-0.6 0.6,-2.9 -0.8,-0.4 -0.8,-1.9 0,-0.2 0.1,-0.2 l 0.1,0.1 q 0.5,0.5 1.3,0.5 2.4,-5.6 4.3,-7.7 0.5,-0.5 1.2,-0.5 z M 129.2,24 l 3.3,-0.1 q -0.9,-5.4 -1.1,-5.4 -0.3,0.2 -2.2,5.5 z M 136.3,15.1 q 0.3,0 0.3,0.2 0,0.1 -0.2,0.4 -0.1,0.2 0,0.5 0.4,1.4 4.7,1.7 2.1,-2.4 5.2,-2.4 2.3,0.2 2.3,1.9 -0.1,2.6 -6.3,2.9 -1.9,6.3 -1.9,11.4 0,1.3 -0.6,1.3 -1.9,0.1 -2,-4.1 0,-4 2,-8.7 -2.9,-0.4 -4.5,-1.4 -1.1,-0.7 -1.1,-1.6 0,-1.7 2.1,-2.1 z M 143.6,17.9 q 2.5,0 3,-1.1 -0.1,-0.3 -0.6,-0.3 -1.2,0 -2.4,1.4 z M 153.1,5.6 q 2.7,0 3.1,1.3 2.8,0 2.8,2.1 0,2 -3.6,4.1 -2,1 -4.2,1 -1.1,0 -2.8,-0.5 -0.7,1.1 -1.3,1.1 -0.2,-0.1 -0.2,-0.3 0,-0.7 0.4,-1.7 -0.9,-0.8 -0.9,-2.1 0,-3 4.1,-4.7 0.9,-0.3 2.6,-0.3 z M 148.7,10.9 q 2.9,-2.8 5.1,-3.3 -4.5,-0.3 -5.2,2.7 -0.1,0.4 0.1,0.6 z M 149.9,12.3 q 0.4,0.3 1.9,0.4 3.2,0 5.4,-2.8 0.2,-0.3 0.2,-0.8 0,-0.6 -0.6,-0.6 -2.3,0 -6.6,3.5 l -0.3,0.3 z M 150.1,16.5 q 1.1,0 1.2,3.8 0,9.2 -1.6,9.2 -1.1,0 -1.3,-4.4 0,-4.6 1.3,-8.3 0.1,-0.2 0.4,-0.3 z M 154.8,16.5 q 1.2,0 1.2,4.3 0,0.1 -0.1,1.7 3.1,-2.3 6.2,-5.5 0.3,-0.2 0.5,-0.2 0.7,-0.1 0.9,0.6 0.1,0.6 -0.3,1 -2.5,2.7 -5.9,5.5 2.8,3.7 6.1,3.4 0.6,0.2 0.6,1.2 0,1 -1.1,1.1 -3.5,0.2 -7,-4.4 l 0.2,3.6 q -0.1,0.8 -1.1,0.8 -0.7,0 -1,-0.4 -0.3,-0.4 -0.3,-1.3 -0.1,-2.9 -0.1,-6.5 l -0.1,-4 q 0,-0.9 1.3,-0.9 z M 166.6,30.2 q -1.9,0 -2.3,-6.1 -0.6,-0.5 -0.6,-1 0,-0.7 0.3,-0.6 h 0.2 q 0,-2.8 0.6,-4.1 0.8,-1.7 2.9,-1.9 1,-0.1 2.9,0 2.3,0 3.7,0.6 2.2,0.9 2.2,2.7 0,2.3 -4.2,3.8 -0.5,0.2 -2,0.4 1.7,0.9 4.8,4.2 0.6,0.7 0.6,1.4 0,1.1 -0.6,1.1 -0.3,0 -0.6,-0.2 -5.8,-5.6 -7.6,-5 0,1.3 0.7,3.3 0.3,1.4 -1,1.4 z M 166.6,22.8 q 2.9,-0.4 5.1,-1.3 2.4,-1 2.4,-1.7 0,-1.2 -2.7,-1.2 -2.2,0 -4.6,0.2 -0.2,1 -0.2,3.5 v 0.5 z M 183,16.9 q 2.5,-0.1 3.4,0.9 0.3,0.5 0.1,1 -0.7,0.5 -2.9,0.5 h -2.6 q -0.4,0.6 -1,3.7 3.1,-0.3 3.2,-0.3 1.2,0.1 1.2,0.9 -0.5,1.1 -2.2,1.3 -2.2,0.2 -2.6,0.2 l -0.1,1.7 q 0.1,1.3 1.1,1.3 3.9,-0.2 4.9,-0.4 0.4,0 0.4,0.2 0,1.4 -4.8,2.6 -0.9,0.2 -1.4,0.2 -2.7,0 -2.7,-2.7 0,-1 0.4,-3.2 -1.2,-0.3 -1.2,-0.9 0,-0.4 1.6,-0.7 0.5,-2.5 1,-4 h -0.1 q -1.8,-0.2 -1.8,-0.8 0.1,-1.1 6.1,-1.5 z M 189.3,17.7 q 0.9,1.5 3.1,8.7 0.1,0.5 0.3,0.8 l 3.9,-8.9 q 0.6,-1.7 1,-1.9 h 0.2 q 0.2,0 0.8,0.4 0.5,0.3 0.5,0.7 0,0.7 -0.8,2.5 l -3.3,7.6 q -0.3,0.8 -0.9,1.5 -0.7,0.4 -1.8,0.4 -0.7,0 -1.1,-0.3 -0.5,-0.4 -1,-2.6 -1.1,-4 -3.1,-8 -0.9,-1.9 0.7,-2.2 0.6,-0.2 1.5,1.3 z M 203,15.4 q 0.4,0 0.3,0.4 -0.1,0.4 -0.6,1.5 -0.6,1.3 -1,2.5 -0.9,2.9 -0.9,4.9 0.1,1.7 0.6,1.7 1.1,-2.6 3.8,-6.3 2.8,-4 4.4,-4 1.8,0 1.8,3.1 0,4.1 -3.3,8.3 -2,2.1 -4.4,2.1 -0.6,0 -1,-0.2 -1.3,3.7 -2.8,9.4 -0.1,0.5 -0.5,0.3 -1.3,-0.6 -1.3,-2.3 0,-2.8 2.3,-8.2 -1.6,-1.4 -1.6,-3.9 0,-3.6 3.8,-9.1 0.2,-0.2 0.4,-0.2 z M 203.7,27.5 q 2.6,0 4.8,-4 1.3,-2.7 1.3,-4.2 0,-0.8 -0.6,-0.8 -1.6,0 -5.7,8.6 -0.2,0.4 0.2,0.4 z" />
</svg>
